<svg width="26" height="25" viewBox="0 0 26 25" fill="none" xmlns="http://www.w3.org/2000/svg">
<g clip-path="url(#clip0_229_313)">
<path d="M22.1 0H3.9C1.74609 0 0 1.67893 0 3.75V21.25C0 23.3211 1.74609 25 3.9 25H22.1C24.2539 25 26 23.3211 26 21.25V3.75C26 1.67893 24.2539 0 22.1 0Z" fill="white"/>
<path d="M13 17.6758V22.9004L19.6523 13.8672L13 17.6758Z" fill="#3C3C3B"/>
<path d="M13 2.00195L19.6523 12.6465L13 16.4551L6.29688 12.6465" fill="#343434"/>
<path d="M13 2.00195V9.7168L6.29688 12.6465M6.29688 13.8672L13 17.6758V22.9004" fill="#8C8C8C"/>
<path d="M13 9.7168V16.4551L19.6523 12.6465" fill="#141414"/>
<path d="M6.29688 12.6465L13 9.7168V16.4551" fill="#393939"/>
</g>
<defs>
<clipPath id="clip0_229_313">
<rect width="26" height="25" fill="white"/>
</clipPath>
</defs>
</svg>
