<svg width="33" height="32" viewBox="0 0 33 32" fill="none" xmlns="http://www.w3.org/2000/svg">
<path d="M4.16748 16H10.1675H16.1675H22.1675H28.1675M4.16748 16V22M4.16748 16V10M28.1675 16V22M28.1675 16V10M4.16748 22V27.4C4.16748 27.7314 4.43611 28 4.76748 28H10.1675H16.1675H22.1675H27.5675C27.8989 28 28.1675 27.7314 28.1675 27.4V22M4.16748 22H10.1675H16.1675H22.1675H28.1675M28.1675 10V4.6C28.1675 4.26863 27.8989 4 27.5675 4H22.1675H16.1675H10.1675H4.76748C4.43611 4 4.16748 4.26863 4.16748 4.6V10M28.1675 10H22.1675H16.1675H10.1675H4.16748" stroke="#8C8C8C" stroke-width="1.5"/>
</svg>
